<?xml version="1.0" encoding="utf-8"?>
<!-- Uploaded to: SVG Repo, www.svgrepo.com, Generator: SVG Repo Mixer Tools -->
<svg fill="#000000" version="1.1" id="Layer_1" xmlns="http://www.w3.org/2000/svg" xmlns:xlink="http://www.w3.org/1999/xlink" 
	 width="800px" height="800px" viewBox="0 0 256 241" enable-background="new 0 0 256 241" xml:space="preserve">
<path d="M254,188V2H2v186h111v29H75v22h106v-22h-38v-29H254z M19,19h217v151H19L19,19z M156.269,42.429
	c-14.477,0-26.28,11.803-26.28,26.28v15.768H85.451v62.98h68.236v-62.98h-13.186V68.709c0-8.668,7.1-15.768,15.768-15.768
	c8.668,0,15.768,7.1,15.768,15.768v15.768h10.512V68.709C182.549,54.232,170.746,42.429,156.269,42.429z M127.407,131.688h-15.768
	l2.121-12.356c-2.859-1.844-4.703-4.979-4.703-8.668c0-5.809,4.703-10.512,10.512-10.512s10.512,4.703,10.512,10.512
	c0,3.688-1.844,6.824-4.703,8.668L127.407,131.688z"/>
</svg>